<svg xmlns="http://www.w3.org/2000/svg" xmlns:xlink="http://www.w3.org/1999/xlink" width="1640" height="1145.5"><rect width="1640" height="1145.5" rx="5" ry="5" class="a"/><svg y="0%" x="0%"><circle cx="20" cy="20" r="6" fill="#ff5f58"/><circle cx="40" cy="20" r="6" fill="#ffbd2e"/><circle cx="60" cy="20" r="6" fill="#18c132"/></svg><svg height="1085.5" viewBox="0 0 160 108.55" width="1600" x="15" xmlns="http://www.w3.org/2000/svg" xmlns:xlink="http://www.w3.org/1999/xlink" y="50"><style>@keyframes o{0%{transform:translateX(0)}8.2%{transform:translateX(-160px)}8.5%{transform:translateX(-320px)}8.6%{transform:translateX(-480px)}9.7%{transform:translateX(-800px)}15.9%{transform:translateX(-960px)}16.8%{transform:translateX(-1120px)}18.5%{transform:translateX(-1280px)}19.7%{transform:translateX(-1440px)}21.6%{transform:translateX(-1600px)}22%{transform:translateX(-1760px)}22.5%{transform:translateX(-2080px)}22.8%{transform:translateX(-2240px)}23%{transform:translateX(-2400px)}23.1%{transform:translateX(-2560px)}23.4%{transform:translateX(-2720px)}23.6%{transform:translateX(-3040px)}23.9%{transform:translateX(-3200px)}24.2%{transform:translateX(-3520px)}24.5%{transform:translateX(-3680px)}24.7%{transform:translateX(-4000px)}32.1%{transform:translateX(-4160px)}34.3%{transform:translateX(-4320px)}37.1%{transform:translateX(-4480px)}38.5%{transform:translateX(-4640px)}41.1%{transform:translateX(-4800px)}41.3%{transform:translateX(-5120px)}41.4%{transform:translateX(-5440px)}41.7%{transform:translateX(-5600px)}53%{transform:translateX(-5760px)}54.3%{transform:translateX(-5920px)}56.4%{transform:translateX(-6080px)}57.6%{transform:translateX(-6240px)}58.5%{transform:translateX(-6400px)}61.8%{transform:translateX(-6560px)}64.2%{transform:translateX(-6720px)}66.4%{transform:translateX(-6880px)}66.6%{transform:translateX(-7520px)}66.9%{transform:translateX(-7840px)}74.7%{transform:translateX(-8000px)}75.8%{transform:translateX(-8160px)}78.5%{transform:translateX(-8320px)}79.4%{transform:translateX(-8480px)}80.3%{transform:translateX(-8640px)}82.8%{transform:translateX(-8800px)}84.4%{transform:translateX(-8960px)}86.9%{transform:translateX(-9120px)}87%{transform:translateX(-9280px)}87.1%{transform:translateX(-9600px)}87.2%{transform:translateX(-10080px)}87.3%{transform:translateX(-10240px)}87.5%{transform:translateX(-10400px)}97%{transform:translateX(-10560px)}97.8%{transform:translateX(-10720px)}98.4%{transform:translateX(-10880px)}99.3%{transform:translateX(-11040px)}to{transform:translateX(-11360px)}}.a{fill:#282d35}.f,.g{white-space:pre}.f{fill:#a8cc8c;font-weight:700}.g{fill:#66c2cd}.g,.h,.i{font-weight:700}.h{fill:#71bef2;white-space:pre}.i{fill:#e88388}.i,.j,.k,.l{white-space:pre}.j{fill:#dbab79;font-weight:700}.k,.l{fill:#b9c0cb}.l{fill:#73bef3}</style><g font-family="Monaco,Consolas,Menlo,'Bitstream Vera Sans Mono','Powerline Symbols',monospace" font-size="1.67"><defs><symbol id="1"><text y="1.67" class="f">➜</text><text x="3.006" y="1.67" class="g">AssemblyLS</text></symbol><symbol id="2"><text y="1.67" class="f">➜</text><text x="3.006" y="1.67" class="g">AssemblyLS</text><text x="14.028" y="1.67" class="h">git:(</text><text x="19.038" y="1.67" class="i">main</text><text x="23.046" y="1.67" class="h">)</text><text x="25.05" y="1.67" class="j">✗</text></symbol><symbol id="3"><text y="1.67" class="f">➜</text><text x="3.006" y="1.67" class="g">AssemblyLS</text><text x="14.028" y="1.67" class="h">git:(</text><text x="19.038" y="1.67" class="i">main</text><text x="23.046" y="1.67" class="h">)</text><text x="25.05" y="1.67" class="j">✗</text><text x="27.054" y="1.67" class="k">make</text></symbol><symbol id="4"><text y="1.67" class="k">nasm</text><text x="5.01" y="1.67" class="k">-f</text><text x="8.016" y="1.67" class="k">elf64</text><text x="14.028" y="1.67" class="k">-g</text><text x="17.034" y="1.67" class="k">-F</text><text x="20.04" y="1.67" class="k">dwarf</text><text x="26.052" y="1.67" class="k">-o</text><text x="29.058" y="1.67" class="k">obj/main.o</text><text x="40.08" y="1.67" class="k">src/main.s</text></symbol><symbol id="5"><text y="1.67" class="k">nasm</text><text x="5.01" y="1.67" class="k">-f</text><text x="8.016" y="1.67" class="k">elf64</text><text x="14.028" y="1.67" class="k">-g</text><text x="17.034" y="1.67" class="k">-F</text><text x="20.04" y="1.67" class="k">dwarf</text><text x="26.052" y="1.67" class="k">-o</text><text x="29.058" y="1.67" class="k">obj/utils/color_utils.o</text><text x="53.106" y="1.67" class="k">src/utils/color_utils.s</text></symbol><symbol id="6"><text y="1.67" class="k">nasm</text><text x="5.01" y="1.67" class="k">-f</text><text x="8.016" y="1.67" class="k">elf64</text><text x="14.028" y="1.67" class="k">-g</text><text x="17.034" y="1.67" class="k">-F</text><text x="20.04" y="1.67" class="k">dwarf</text><text x="26.052" y="1.67" class="k">-o</text><text x="29.058" y="1.67" class="k">obj/utils/dir_utils.o</text><text x="51.102" y="1.67" class="k">src/utils/dir_utils.s</text></symbol><symbol id="7"><text y="1.67" class="k">nasm</text><text x="5.01" y="1.67" class="k">-f</text><text x="8.016" y="1.67" class="k">elf64</text><text x="14.028" y="1.67" class="k">-g</text><text x="17.034" y="1.67" class="k">-F</text><text x="20.04" y="1.67" class="k">dwarf</text><text x="26.052" y="1.67" class="k">-o</text><text x="29.058" y="1.67" class="k">obj/utils/get_lines.o</text><text x="51.102" y="1.67" class="k">src/utils/get_lines.s</text></symbol><symbol id="8"><text y="1.67" class="k">nasm</text><text x="5.01" y="1.67" class="k">-f</text><text x="8.016" y="1.67" class="k">elf64</text><text x="14.028" y="1.67" class="k">-g</text><text x="17.034" y="1.67" class="k">-F</text><text x="20.04" y="1.67" class="k">dwarf</text><text x="26.052" y="1.67" class="k">-o</text><text x="29.058" y="1.67" class="k">obj/utils/passwd_utils.o</text><text x="54.108" y="1.67" class="k">src/utils/passwd_utils.s</text></symbol><symbol id="9"><text y="1.67" class="k">nasm</text><text x="5.01" y="1.67" class="k">-f</text><text x="8.016" y="1.67" class="k">elf64</text><text x="14.028" y="1.67" class="k">-g</text><text x="17.034" y="1.67" class="k">-F</text><text x="20.04" y="1.67" class="k">dwarf</text><text x="26.052" y="1.67" class="k">-o</text><text x="29.058" y="1.67" class="k">obj/utils/print_utils.o</text><text x="53.106" y="1.67" class="k">src/utils/print_utils.s</text></symbol><symbol id="10"><text y="1.67" class="k">nasm</text><text x="5.01" y="1.67" class="k">-f</text><text x="8.016" y="1.67" class="k">elf64</text><text x="14.028" y="1.67" class="k">-g</text><text x="17.034" y="1.67" class="k">-F</text><text x="20.04" y="1.67" class="k">dwarf</text><text x="26.052" y="1.67" class="k">-o</text><text x="29.058" y="1.67" class="k">obj/utils/string_utils.o</text><text x="54.108" y="1.67" class="k">src/utils/string_utils.s</text></symbol><symbol id="11"><text y="1.67" class="k">ld</text><text x="3.006" y="1.67" class="k">-o</text><text x="6.012" y="1.67" class="k">ls</text><text x="9.018" y="1.67" class="k">obj/main.o</text><text x="20.04" y="1.67" class="k">obj/utils/color_utils.o</text><text x="44.088" y="1.67" class="k">obj/utils/dir_utils.o</text><text x="66.132" y="1.67" class="k">obj/utils/get_lines.o</text><text x="88.176" y="1.67" class="k">obj/utils/passwd_utils.o</text><text x="113.226" y="1.67" class="k">obj/utils/print_utils.o</text><text x="137.274" y="1.67" class="k">obj/utils/string_utils.</text></symbol><symbol id="12"><text y="1.67" class="k">o</text></symbol><symbol id="13"><text y="1.67" class="f">➜</text><text x="3.006" y="1.67" class="g">AssemblyLS</text><text x="14.028" y="1.67" class="h">git:(</text><text x="19.038" y="1.67" class="i">main</text><text x="23.046" y="1.67" class="h">)</text><text x="25.05" y="1.67" class="j">✗</text><text x="27.054" y="1.67" class="k">.</text></symbol><symbol id="14"><text y="1.67" class="f">➜</text><text x="3.006" y="1.67" class="g">AssemblyLS</text><text x="14.028" y="1.67" class="h">git:(</text><text x="19.038" y="1.67" class="i">main</text><text x="23.046" y="1.67" class="h">)</text><text x="25.05" y="1.67" class="j">✗</text><text x="27.054" y="1.67" class="k">./</text></symbol><symbol id="15"><text y="1.67" class="f">➜</text><text x="3.006" y="1.67" class="g">AssemblyLS</text><text x="14.028" y="1.67" class="h">git:(</text><text x="19.038" y="1.67" class="i">main</text><text x="23.046" y="1.67" class="h">)</text><text x="25.05" y="1.67" class="j">✗</text><text x="27.054" y="1.67" class="k">./l</text></symbol><symbol id="16"><text y="1.67" class="f">➜</text><text x="3.006" y="1.67" class="g">AssemblyLS</text><text x="14.028" y="1.67" class="h">git:(</text><text x="19.038" y="1.67" class="i">main</text><text x="23.046" y="1.67" class="h">)</text><text x="25.05" y="1.67" class="j">✗</text><text x="27.054" y="1.67" class="k">./ls</text></symbol><symbol id="17"><text y="1.67" class="l">include</text><text x="9.018" y="1.67" class="l">src</text><text x="14.028" y="1.67" class="l">tmp</text><text x="19.038" y="1.67" class="k">README.md</text><text x="30.06" y="1.67" class="k">ls</text><text x="34.068" y="1.67" class="k">demo.cast</text><text x="45.09" y="1.67" class="k">Makefile</text><text x="55.11" y="1.67" class="l">obj</text></symbol><symbol id="18"><text y="1.67" class="f">➜</text><text x="3.006" y="1.67" class="g">AssemblyLS</text><text x="14.028" y="1.67" class="h">git:(</text><text x="19.038" y="1.67" class="i">main</text><text x="23.046" y="1.67" class="h">)</text><text x="25.05" y="1.67" class="j">✗</text><text x="27.054" y="1.67" class="k">./ls</text><text x="32.064" y="1.67" class="k">-</text></symbol><symbol id="19"><text y="1.67" class="f">➜</text><text x="3.006" y="1.67" class="g">AssemblyLS</text><text x="14.028" y="1.67" class="h">git:(</text><text x="19.038" y="1.67" class="i">main</text><text x="23.046" y="1.67" class="h">)</text><text x="25.05" y="1.67" class="j">✗</text><text x="27.054" y="1.67" class="k">./ls</text><text x="32.064" y="1.67" class="k">-a</text></symbol><symbol id="20"><text y="1.67" class="l">include</text><text x="9.018" y="1.67" class="l">..</text><text x="13.026" y="1.67" class="k">.gitignore</text><text x="25.05" y="1.67" class="l">src</text><text x="30.06" y="1.67" class="l">tmp</text><text x="35.07" y="1.67" class="k">README.md</text><text x="46.092" y="1.67" class="l">.git</text><text x="52.104" y="1.67" class="k">ls</text><text x="56.112" y="1.67" class="k">demo.cast</text><text x="67.134" y="1.67" class="k">Makefile</text><text x="77.154" y="1.67" class="l">.</text><text x="80.16" y="1.67" class="l">obj</text></symbol><symbol id="21"><text y="1.67" class="f">➜</text><text x="3.006" y="1.67" class="g">AssemblyLS</text><text x="14.028" y="1.67" class="h">git:(</text><text x="19.038" y="1.67" class="i">main</text><text x="23.046" y="1.67" class="h">)</text><text x="25.05" y="1.67" class="j">✗</text><text x="27.054" y="1.67" class="k">./ls</text><text x="32.064" y="1.67" class="k">-l</text></symbol><symbol id="22"><text y="1.67" class="k">d---------</text><text x="11.022" y="1.67" class="k">2</text><text x="13.026" y="1.67" class="l">include</text></symbol><symbol id="23"><text y="1.67" class="k">d---------</text><text x="11.022" y="1.67" class="k">3</text><text x="13.026" y="1.67" class="l">src</text></symbol><symbol id="24"><text y="1.67" class="k">d---------</text><text x="11.022" y="1.67" class="k">2</text><text x="13.026" y="1.67" class="l">tmp</text></symbol><symbol id="25"><text y="1.67" class="k">----------</text><text x="11.022" y="1.67" class="k">1</text><text x="13.026" y="1.67" class="k">README.md</text></symbol><symbol id="26"><text y="1.67" class="k">----------</text><text x="11.022" y="1.67" class="k">1</text><text x="13.026" y="1.67" class="k">ls</text></symbol><symbol id="27"><text y="1.67" class="k">----------</text><text x="11.022" y="1.67" class="k">1</text><text x="13.026" y="1.67" class="k">demo.cast</text></symbol><symbol id="28"><text y="1.67" class="k">----------</text><text x="11.022" y="1.67" class="k">1</text><text x="13.026" y="1.67" class="k">Makefile</text></symbol><symbol id="29"><text y="1.67" class="k">d---------</text><text x="11.022" y="1.67" class="k">3</text><text x="13.026" y="1.67" class="l">obj</text></symbol><symbol id="30"><text y="1.67" class="f">➜</text><text x="3.006" y="1.67" class="g">AssemblyLS</text><text x="14.028" y="1.67" class="h">git:(</text><text x="19.038" y="1.67" class="i">main</text><text x="23.046" y="1.67" class="h">)</text><text x="25.05" y="1.67" class="j">✗</text><text x="27.054" y="1.67" class="k">exit</text></symbol><symbol id="a"><path fill="transparent" d="M0 0h160v50H0z"/></symbol><symbol id="b"><path fill="#6f7683" d="M0 0h1.102v2.171H0z"/></symbol></defs><path class="a" d="M0 0h160v108.55H0z"/><g style="animation-duration:13.910182s;animation-iteration-count:infinite;animation-name:o;animation-timing-function:steps(1,end)"><svg width="11520"><svg><use xlink:href="#a"/><use xlink:href="#b" x="-.004"/></svg><svg x="160"><use xlink:href="#a"/><use xlink:href="#b" x="-.004"/></svg><svg x="320"><use xlink:href="#a"/><use xlink:href="#b" x="13.996"/><use xlink:href="#1"/></svg><svg x="480"><use xlink:href="#a"/><use xlink:href="#b" x="13.996"/><use xlink:href="#1"/></svg><svg x="640"><use xlink:href="#a"/><use xlink:href="#b" x="26.996"/><use xlink:href="#2"/></svg><svg x="800"><use xlink:href="#a"/><use xlink:href="#b" x="26.996"/><use xlink:href="#2"/></svg><svg x="960"><use xlink:href="#a"/><use xlink:href="#b" x="27.996"/><text y="1.67" class="f">➜</text><text x="3.006" y="1.67" class="g">AssemblyLS</text><text x="14.028" y="1.67" class="h">git:(</text><text x="19.038" y="1.67" class="i">main</text><text x="23.046" y="1.67" class="h">)</text><text x="25.05" y="1.67" class="j">✗</text><text x="27.054" y="1.67" class="k">m</text></svg><svg x="1120"><use xlink:href="#a"/><use xlink:href="#b" x="28.996"/><text y="1.67" class="f">➜</text><text x="3.006" y="1.67" class="g">AssemblyLS</text><text x="14.028" y="1.67" class="h">git:(</text><text x="19.038" y="1.67" class="i">main</text><text x="23.046" y="1.67" class="h">)</text><text x="25.05" y="1.67" class="j">✗</text><text x="27.054" y="1.67" class="k">ma</text></svg><svg x="1280"><use xlink:href="#a"/><use xlink:href="#b" x="29.996"/><text y="1.67" class="f">➜</text><text x="3.006" y="1.67" class="g">AssemblyLS</text><text x="14.028" y="1.67" class="h">git:(</text><text x="19.038" y="1.67" class="i">main</text><text x="23.046" y="1.67" class="h">)</text><text x="25.05" y="1.67" class="j">✗</text><text x="27.054" y="1.67" class="k">mak</text></svg><svg x="1440"><use xlink:href="#a"/><use xlink:href="#b" x="30.996"/><use xlink:href="#3"/></svg><svg x="1600"><use xlink:href="#a"/><use xlink:href="#b" x="-.004" y="2.146"/><use xlink:href="#3"/></svg><svg x="1760"><use xlink:href="#a"/><use xlink:href="#b" x="-.004" y="4.317"/><use xlink:href="#3"/><use xlink:href="#4" y="2.171"/></svg><svg x="1920"><use xlink:href="#a"/><use xlink:href="#b" x="75.996" y="4.317"/><use xlink:href="#3"/><use xlink:href="#4" y="2.171"/><use xlink:href="#5" y="4.342"/></svg><svg x="2080"><use xlink:href="#a"/><use xlink:href="#b" x="-.004" y="6.488"/><use xlink:href="#3"/><use xlink:href="#4" y="2.171"/><use xlink:href="#5" y="4.342"/></svg><svg x="2240"><use xlink:href="#a"/><use xlink:href="#b" x="-.004" y="8.659"/><use xlink:href="#3"/><use xlink:href="#4" y="2.171"/><use xlink:href="#5" y="4.342"/><use xlink:href="#6" y="6.513"/></svg><svg x="2400"><use xlink:href="#a"/><use xlink:href="#b" x="71.996" y="8.659"/><use xlink:href="#3"/><use xlink:href="#4" y="2.171"/><use xlink:href="#5" y="4.342"/><use xlink:href="#6" y="6.513"/><use xlink:href="#7" y="8.684"/></svg><svg x="2560"><use xlink:href="#a"/><use xlink:href="#b" x="-.004" y="10.83"/><use xlink:href="#3"/><use xlink:href="#4" y="2.171"/><use xlink:href="#5" y="4.342"/><use xlink:href="#6" y="6.513"/><use xlink:href="#7" y="8.684"/></svg><svg x="2720"><use xlink:href="#a"/><use xlink:href="#b" x="-.004" y="13.001"/><use xlink:href="#3"/><use xlink:href="#4" y="2.171"/><use xlink:href="#5" y="4.342"/><use xlink:href="#6" y="6.513"/><use xlink:href="#7" y="8.684"/><use xlink:href="#8" y="10.855"/></svg><svg x="2880"><use xlink:href="#a"/><use xlink:href="#b" x="75.996" y="13.001"/><use xlink:href="#3"/><use xlink:href="#4" y="2.171"/><use xlink:href="#5" y="4.342"/><use xlink:href="#6" y="6.513"/><use xlink:href="#7" y="8.684"/><use xlink:href="#8" y="10.855"/><use xlink:href="#9" y="13.026"/></svg><svg x="3040"><use xlink:href="#a"/><use xlink:href="#b" x="-.004" y="15.172"/><use xlink:href="#3"/><use xlink:href="#4" y="2.171"/><use xlink:href="#5" y="4.342"/><use xlink:href="#6" y="6.513"/><use xlink:href="#7" y="8.684"/><use xlink:href="#8" y="10.855"/><use xlink:href="#9" y="13.026"/></svg><svg x="3200"><use xlink:href="#a"/><use xlink:href="#b" x="-.004" y="17.343"/><use xlink:href="#3"/><use xlink:href="#4" y="2.171"/><use xlink:href="#5" y="4.342"/><use xlink:href="#6" y="6.513"/><use xlink:href="#7" y="8.684"/><use xlink:href="#8" y="10.855"/><use xlink:href="#9" y="13.026"/><use xlink:href="#10" y="15.197"/></svg><svg x="3360"><use xlink:href="#a"/><use xlink:href="#b" x=".996" y="19.514"/><use xlink:href="#3"/><use xlink:href="#4" y="2.171"/><use xlink:href="#5" y="4.342"/><use xlink:href="#6" y="6.513"/><use xlink:href="#7" y="8.684"/><use xlink:href="#8" y="10.855"/><use xlink:href="#9" y="13.026"/><use xlink:href="#10" y="15.197"/><use xlink:href="#11" y="17.368"/><use xlink:href="#12" y="19.539"/></svg><svg x="3520"><use xlink:href="#a"/><use xlink:href="#b" x="-.004" y="21.685"/><use xlink:href="#3"/><use xlink:href="#4" y="2.171"/><use xlink:href="#5" y="4.342"/><use xlink:href="#6" y="6.513"/><use xlink:href="#7" y="8.684"/><use xlink:href="#8" y="10.855"/><use xlink:href="#9" y="13.026"/><use xlink:href="#10" y="15.197"/><use xlink:href="#11" y="17.368"/><use xlink:href="#12" y="19.539"/></svg><svg x="3680"><use xlink:href="#a"/><use xlink:href="#b" x="-.004" y="21.685"/><use xlink:href="#3"/><use xlink:href="#4" y="2.171"/><use xlink:href="#5" y="4.342"/><use xlink:href="#6" y="6.513"/><use xlink:href="#7" y="8.684"/><use xlink:href="#8" y="10.855"/><use xlink:href="#9" y="13.026"/><use xlink:href="#10" y="15.197"/><use xlink:href="#11" y="17.368"/><use xlink:href="#12" y="19.539"/></svg><svg x="3840"><use xlink:href="#a"/><use xlink:href="#b" x="26.996" y="21.685"/><use xlink:href="#3"/><use xlink:href="#4" y="2.171"/><use xlink:href="#5" y="4.342"/><use xlink:href="#6" y="6.513"/><use xlink:href="#7" y="8.684"/><use xlink:href="#8" y="10.855"/><use xlink:href="#9" y="13.026"/><use xlink:href="#10" y="15.197"/><use xlink:href="#11" y="17.368"/><use xlink:href="#12" y="19.539"/><use xlink:href="#2" y="21.71"/></svg><svg x="4000"><use xlink:href="#a"/><use xlink:href="#b" x="26.996" y="21.685"/><use xlink:href="#3"/><use xlink:href="#4" y="2.171"/><use xlink:href="#5" y="4.342"/><use xlink:href="#6" y="6.513"/><use xlink:href="#7" y="8.684"/><use xlink:href="#8" y="10.855"/><use xlink:href="#9" y="13.026"/><use xlink:href="#10" y="15.197"/><use xlink:href="#11" y="17.368"/><use xlink:href="#12" y="19.539"/><use xlink:href="#2" y="21.71"/></svg><svg x="4160"><use xlink:href="#a"/><use xlink:href="#b" x="27.996" y="21.685"/><use xlink:href="#3"/><use xlink:href="#4" y="2.171"/><use xlink:href="#5" y="4.342"/><use xlink:href="#6" y="6.513"/><use xlink:href="#7" y="8.684"/><use xlink:href="#8" y="10.855"/><use xlink:href="#9" y="13.026"/><use xlink:href="#10" y="15.197"/><use xlink:href="#11" y="17.368"/><use xlink:href="#12" y="19.539"/><use xlink:href="#13" y="21.71"/></svg><svg x="4320"><use xlink:href="#a"/><use xlink:href="#b" x="28.996" y="21.685"/><use xlink:href="#3"/><use xlink:href="#4" y="2.171"/><use xlink:href="#5" y="4.342"/><use xlink:href="#6" y="6.513"/><use xlink:href="#7" y="8.684"/><use xlink:href="#8" y="10.855"/><use xlink:href="#9" y="13.026"/><use xlink:href="#10" y="15.197"/><use xlink:href="#11" y="17.368"/><use xlink:href="#12" y="19.539"/><use xlink:href="#14" y="21.71"/></svg><svg x="4480"><use xlink:href="#a"/><use xlink:href="#b" x="29.996" y="21.685"/><use xlink:href="#3"/><use xlink:href="#4" y="2.171"/><use xlink:href="#5" y="4.342"/><use xlink:href="#6" y="6.513"/><use xlink:href="#7" y="8.684"/><use xlink:href="#8" y="10.855"/><use xlink:href="#9" y="13.026"/><use xlink:href="#10" y="15.197"/><use xlink:href="#11" y="17.368"/><use xlink:href="#12" y="19.539"/><use xlink:href="#15" y="21.71"/></svg><svg x="4640"><use xlink:href="#a"/><use xlink:href="#b" x="30.996" y="21.685"/><use xlink:href="#3"/><use xlink:href="#4" y="2.171"/><use xlink:href="#5" y="4.342"/><use xlink:href="#6" y="6.513"/><use xlink:href="#7" y="8.684"/><use xlink:href="#8" y="10.855"/><use xlink:href="#9" y="13.026"/><use xlink:href="#10" y="15.197"/><use xlink:href="#11" y="17.368"/><use xlink:href="#12" y="19.539"/><use xlink:href="#16" y="21.71"/></svg><svg x="4800"><use xlink:href="#a"/><use xlink:href="#b" x="-.004" y="23.856"/><use xlink:href="#3"/><use xlink:href="#4" y="2.171"/><use xlink:href="#5" y="4.342"/><use xlink:href="#6" y="6.513"/><use xlink:href="#7" y="8.684"/><use xlink:href="#8" y="10.855"/><use xlink:href="#9" y="13.026"/><use xlink:href="#10" y="15.197"/><use xlink:href="#11" y="17.368"/><use xlink:href="#12" y="19.539"/><use xlink:href="#16" y="21.71"/></svg><svg x="4960"><use xlink:href="#a"/><use xlink:href="#b" x="-.004" y="23.856"/><use xlink:href="#3"/><use xlink:href="#4" y="2.171"/><use xlink:href="#5" y="4.342"/><use xlink:href="#6" y="6.513"/><use xlink:href="#7" y="8.684"/><use xlink:href="#8" y="10.855"/><use xlink:href="#9" y="13.026"/><use xlink:href="#10" y="15.197"/><use xlink:href="#11" y="17.368"/><use xlink:href="#12" y="19.539"/><use xlink:href="#16" y="21.71"/></svg><svg x="5120"><use xlink:href="#a"/><use xlink:href="#b" x="8.996" y="23.856"/><use xlink:href="#3"/><use xlink:href="#4" y="2.171"/><use xlink:href="#5" y="4.342"/><use xlink:href="#6" y="6.513"/><use xlink:href="#7" y="8.684"/><use xlink:href="#8" y="10.855"/><use xlink:href="#9" y="13.026"/><use xlink:href="#10" y="15.197"/><use xlink:href="#11" y="17.368"/><use xlink:href="#12" y="19.539"/><use xlink:href="#16" y="21.71"/><text y="25.551" class="l">include</text></svg><svg x="5280"><use xlink:href="#a"/><use xlink:href="#b" x="-.004" y="26.027"/><use xlink:href="#3"/><use xlink:href="#4" y="2.171"/><use xlink:href="#5" y="4.342"/><use xlink:href="#6" y="6.513"/><use xlink:href="#7" y="8.684"/><use xlink:href="#8" y="10.855"/><use xlink:href="#9" y="13.026"/><use xlink:href="#10" y="15.197"/><use xlink:href="#11" y="17.368"/><use xlink:href="#12" y="19.539"/><use xlink:href="#16" y="21.71"/><use xlink:href="#17" y="23.881"/></svg><svg x="5440"><use xlink:href="#a"/><use xlink:href="#b" x="-.004" y="26.027"/><use xlink:href="#3"/><use xlink:href="#4" y="2.171"/><use xlink:href="#5" y="4.342"/><use xlink:href="#6" y="6.513"/><use xlink:href="#7" y="8.684"/><use xlink:href="#8" y="10.855"/><use xlink:href="#9" y="13.026"/><use xlink:href="#10" y="15.197"/><use xlink:href="#11" y="17.368"/><use xlink:href="#12" y="19.539"/><use xlink:href="#16" y="21.71"/><use xlink:href="#17" y="23.881"/></svg><svg x="5600"><use xlink:href="#a"/><use xlink:href="#b" x="26.996" y="26.027"/><use xlink:href="#3"/><use xlink:href="#4" y="2.171"/><use xlink:href="#5" y="4.342"/><use xlink:href="#6" y="6.513"/><use xlink:href="#7" y="8.684"/><use xlink:href="#8" y="10.855"/><use xlink:href="#9" y="13.026"/><use xlink:href="#10" y="15.197"/><use xlink:href="#11" y="17.368"/><use xlink:href="#12" y="19.539"/><use xlink:href="#16" y="21.71"/><use xlink:href="#17" y="23.881"/><use xlink:href="#2" y="26.052"/></svg><svg x="5760"><use xlink:href="#a"/><use xlink:href="#b" x="27.996" y="26.027"/><use xlink:href="#3"/><use xlink:href="#4" y="2.171"/><use xlink:href="#5" y="4.342"/><use xlink:href="#6" y="6.513"/><use xlink:href="#7" y="8.684"/><use xlink:href="#8" y="10.855"/><use xlink:href="#9" y="13.026"/><use xlink:href="#10" y="15.197"/><use xlink:href="#11" y="17.368"/><use xlink:href="#12" y="19.539"/><use xlink:href="#16" y="21.71"/><use xlink:href="#17" y="23.881"/><use xlink:href="#13" y="26.052"/></svg><svg x="5920"><use xlink:href="#a"/><use xlink:href="#b" x="28.996" y="26.027"/><use xlink:href="#3"/><use xlink:href="#4" y="2.171"/><use xlink:href="#5" y="4.342"/><use xlink:href="#6" y="6.513"/><use xlink:href="#7" y="8.684"/><use xlink:href="#8" y="10.855"/><use xlink:href="#9" y="13.026"/><use xlink:href="#10" y="15.197"/><use xlink:href="#11" y="17.368"/><use xlink:href="#12" y="19.539"/><use xlink:href="#16" y="21.71"/><use xlink:href="#17" y="23.881"/><use xlink:href="#14" y="26.052"/></svg><svg x="6080"><use xlink:href="#a"/><use xlink:href="#b" x="29.996" y="26.027"/><use xlink:href="#3"/><use xlink:href="#4" y="2.171"/><use xlink:href="#5" y="4.342"/><use xlink:href="#6" y="6.513"/><use xlink:href="#7" y="8.684"/><use xlink:href="#8" y="10.855"/><use xlink:href="#9" y="13.026"/><use xlink:href="#10" y="15.197"/><use xlink:href="#11" y="17.368"/><use xlink:href="#12" y="19.539"/><use xlink:href="#16" y="21.71"/><use xlink:href="#17" y="23.881"/><use xlink:href="#15" y="26.052"/></svg><svg x="6240"><use xlink:href="#a"/><use xlink:href="#b" x="30.996" y="26.027"/><use xlink:href="#3"/><use xlink:href="#4" y="2.171"/><use xlink:href="#5" y="4.342"/><use xlink:href="#6" y="6.513"/><use xlink:href="#7" y="8.684"/><use xlink:href="#8" y="10.855"/><use xlink:href="#9" y="13.026"/><use xlink:href="#10" y="15.197"/><use xlink:href="#11" y="17.368"/><use xlink:href="#12" y="19.539"/><use xlink:href="#16" y="21.71"/><use xlink:href="#17" y="23.881"/><use xlink:href="#16" y="26.052"/></svg><svg x="6400"><use xlink:href="#a"/><use xlink:href="#b" x="31.996" y="26.027"/><use xlink:href="#3"/><use xlink:href="#4" y="2.171"/><use xlink:href="#5" y="4.342"/><use xlink:href="#6" y="6.513"/><use xlink:href="#7" y="8.684"/><use xlink:href="#8" y="10.855"/><use xlink:href="#9" y="13.026"/><use xlink:href="#10" y="15.197"/><use xlink:href="#11" y="17.368"/><use xlink:href="#12" y="19.539"/><use xlink:href="#16" y="21.71"/><use xlink:href="#17" y="23.881"/><use xlink:href="#16" y="26.052"/></svg><svg x="6560"><use xlink:href="#a"/><use xlink:href="#b" x="32.996" y="26.027"/><use xlink:href="#3"/><use xlink:href="#4" y="2.171"/><use xlink:href="#5" y="4.342"/><use xlink:href="#6" y="6.513"/><use xlink:href="#7" y="8.684"/><use xlink:href="#8" y="10.855"/><use xlink:href="#9" y="13.026"/><use xlink:href="#10" y="15.197"/><use xlink:href="#11" y="17.368"/><use xlink:href="#12" y="19.539"/><use xlink:href="#16" y="21.71"/><use xlink:href="#17" y="23.881"/><use xlink:href="#18" y="26.052"/></svg><svg x="6720"><use xlink:href="#a"/><use xlink:href="#b" x="33.996" y="26.027"/><use xlink:href="#3"/><use xlink:href="#4" y="2.171"/><use xlink:href="#5" y="4.342"/><use xlink:href="#6" y="6.513"/><use xlink:href="#7" y="8.684"/><use xlink:href="#8" y="10.855"/><use xlink:href="#9" y="13.026"/><use xlink:href="#10" y="15.197"/><use xlink:href="#11" y="17.368"/><use xlink:href="#12" y="19.539"/><use xlink:href="#16" y="21.71"/><use xlink:href="#17" y="23.881"/><use xlink:href="#19" y="26.052"/></svg><svg x="6880"><use xlink:href="#a"/><use xlink:href="#b" x="-.004" y="28.198"/><use xlink:href="#3"/><use xlink:href="#4" y="2.171"/><use xlink:href="#5" y="4.342"/><use xlink:href="#6" y="6.513"/><use xlink:href="#7" y="8.684"/><use xlink:href="#8" y="10.855"/><use xlink:href="#9" y="13.026"/><use xlink:href="#10" y="15.197"/><use xlink:href="#11" y="17.368"/><use xlink:href="#12" y="19.539"/><use xlink:href="#16" y="21.71"/><use xlink:href="#17" y="23.881"/><use xlink:href="#19" y="26.052"/></svg><svg x="7040"><use xlink:href="#a"/><use xlink:href="#b" x="-.004" y="28.198"/><use xlink:href="#3"/><use xlink:href="#4" y="2.171"/><use xlink:href="#5" y="4.342"/><use xlink:href="#6" y="6.513"/><use xlink:href="#7" y="8.684"/><use xlink:href="#8" y="10.855"/><use xlink:href="#9" y="13.026"/><use xlink:href="#10" y="15.197"/><use xlink:href="#11" y="17.368"/><use xlink:href="#12" y="19.539"/><use xlink:href="#16" y="21.71"/><use xlink:href="#17" y="23.881"/><use xlink:href="#19" y="26.052"/></svg><svg x="7200"><use xlink:href="#a"/><use xlink:href="#b" x="32.996" y="28.198"/><use xlink:href="#3"/><use xlink:href="#4" y="2.171"/><use xlink:href="#5" y="4.342"/><use xlink:href="#6" y="6.513"/><use xlink:href="#7" y="8.684"/><use xlink:href="#8" y="10.855"/><use xlink:href="#9" y="13.026"/><use xlink:href="#10" y="15.197"/><use xlink:href="#11" y="17.368"/><use xlink:href="#12" y="19.539"/><use xlink:href="#16" y="21.71"/><use xlink:href="#17" y="23.881"/><use xlink:href="#19" y="26.052"/><text y="29.893" class="l">include</text><text x="9.018" y="29.893" class="l">..</text><text x="13.026" y="29.893" class="k">.gitignore</text><text x="25.05" y="29.893" class="l">src</text><text x="30.06" y="29.893" class="l">tmp</text></svg><svg x="7360"><use xlink:href="#a"/><use xlink:href="#b" x="-.004" y="30.369"/><use xlink:href="#3"/><use xlink:href="#4" y="2.171"/><use xlink:href="#5" y="4.342"/><use xlink:href="#6" y="6.513"/><use xlink:href="#7" y="8.684"/><use xlink:href="#8" y="10.855"/><use xlink:href="#9" y="13.026"/><use xlink:href="#10" y="15.197"/><use xlink:href="#11" y="17.368"/><use xlink:href="#12" y="19.539"/><use xlink:href="#16" y="21.71"/><use xlink:href="#17" y="23.881"/><use xlink:href="#19" y="26.052"/><use xlink:href="#20" y="28.223"/></svg><svg x="7520"><use xlink:href="#a"/><use xlink:href="#b" x="-.004" y="30.369"/><use xlink:href="#3"/><use xlink:href="#4" y="2.171"/><use xlink:href="#5" y="4.342"/><use xlink:href="#6" y="6.513"/><use xlink:href="#7" y="8.684"/><use xlink:href="#8" y="10.855"/><use xlink:href="#9" y="13.026"/><use xlink:href="#10" y="15.197"/><use xlink:href="#11" y="17.368"/><use xlink:href="#12" y="19.539"/><use xlink:href="#16" y="21.71"/><use xlink:href="#17" y="23.881"/><use xlink:href="#19" y="26.052"/><use xlink:href="#20" y="28.223"/></svg><svg x="7680"><use xlink:href="#a"/><use xlink:href="#b" x="26.996" y="30.369"/><use xlink:href="#3"/><use xlink:href="#4" y="2.171"/><use xlink:href="#5" y="4.342"/><use xlink:href="#6" y="6.513"/><use xlink:href="#7" y="8.684"/><use xlink:href="#8" y="10.855"/><use xlink:href="#9" y="13.026"/><use xlink:href="#10" y="15.197"/><use xlink:href="#11" y="17.368"/><use xlink:href="#12" y="19.539"/><use xlink:href="#16" y="21.71"/><use xlink:href="#17" y="23.881"/><use xlink:href="#19" y="26.052"/><use xlink:href="#20" y="28.223"/><use xlink:href="#2" y="30.394"/></svg><svg x="7840"><use xlink:href="#a"/><use xlink:href="#b" x="26.996" y="30.369"/><use xlink:href="#3"/><use xlink:href="#4" y="2.171"/><use xlink:href="#5" y="4.342"/><use xlink:href="#6" y="6.513"/><use xlink:href="#7" y="8.684"/><use xlink:href="#8" y="10.855"/><use xlink:href="#9" y="13.026"/><use xlink:href="#10" y="15.197"/><use xlink:href="#11" y="17.368"/><use xlink:href="#12" y="19.539"/><use xlink:href="#16" y="21.71"/><use xlink:href="#17" y="23.881"/><use xlink:href="#19" y="26.052"/><use xlink:href="#20" y="28.223"/><use xlink:href="#2" y="30.394"/></svg><svg x="8000"><use xlink:href="#a"/><use xlink:href="#b" x="27.996" y="30.369"/><use xlink:href="#3"/><use xlink:href="#4" y="2.171"/><use xlink:href="#5" y="4.342"/><use xlink:href="#6" y="6.513"/><use xlink:href="#7" y="8.684"/><use xlink:href="#8" y="10.855"/><use xlink:href="#9" y="13.026"/><use xlink:href="#10" y="15.197"/><use xlink:href="#11" y="17.368"/><use xlink:href="#12" y="19.539"/><use xlink:href="#16" y="21.71"/><use xlink:href="#17" y="23.881"/><use xlink:href="#19" y="26.052"/><use xlink:href="#20" y="28.223"/><use xlink:href="#13" y="30.394"/></svg><svg x="8160"><use xlink:href="#a"/><use xlink:href="#b" x="28.996" y="30.369"/><use xlink:href="#3"/><use xlink:href="#4" y="2.171"/><use xlink:href="#5" y="4.342"/><use xlink:href="#6" y="6.513"/><use xlink:href="#7" y="8.684"/><use xlink:href="#8" y="10.855"/><use xlink:href="#9" y="13.026"/><use xlink:href="#10" y="15.197"/><use xlink:href="#11" y="17.368"/><use xlink:href="#12" y="19.539"/><use xlink:href="#16" y="21.71"/><use xlink:href="#17" y="23.881"/><use xlink:href="#19" y="26.052"/><use xlink:href="#20" y="28.223"/><use xlink:href="#14" y="30.394"/></svg><svg x="8320"><use xlink:href="#a"/><use xlink:href="#b" x="29.996" y="30.369"/><use xlink:href="#3"/><use xlink:href="#4" y="2.171"/><use xlink:href="#5" y="4.342"/><use xlink:href="#6" y="6.513"/><use xlink:href="#7" y="8.684"/><use xlink:href="#8" y="10.855"/><use xlink:href="#9" y="13.026"/><use xlink:href="#10" y="15.197"/><use xlink:href="#11" y="17.368"/><use xlink:href="#12" y="19.539"/><use xlink:href="#16" y="21.71"/><use xlink:href="#17" y="23.881"/><use xlink:href="#19" y="26.052"/><use xlink:href="#20" y="28.223"/><use xlink:href="#15" y="30.394"/></svg><svg x="8480"><use xlink:href="#a"/><use xlink:href="#b" x="30.996" y="30.369"/><use xlink:href="#3"/><use xlink:href="#4" y="2.171"/><use xlink:href="#5" y="4.342"/><use xlink:href="#6" y="6.513"/><use xlink:href="#7" y="8.684"/><use xlink:href="#8" y="10.855"/><use xlink:href="#9" y="13.026"/><use xlink:href="#10" y="15.197"/><use xlink:href="#11" y="17.368"/><use xlink:href="#12" y="19.539"/><use xlink:href="#16" y="21.71"/><use xlink:href="#17" y="23.881"/><use xlink:href="#19" y="26.052"/><use xlink:href="#20" y="28.223"/><use xlink:href="#16" y="30.394"/></svg><svg x="8640"><use xlink:href="#a"/><use xlink:href="#b" x="31.996" y="30.369"/><use xlink:href="#3"/><use xlink:href="#4" y="2.171"/><use xlink:href="#5" y="4.342"/><use xlink:href="#6" y="6.513"/><use xlink:href="#7" y="8.684"/><use xlink:href="#8" y="10.855"/><use xlink:href="#9" y="13.026"/><use xlink:href="#10" y="15.197"/><use xlink:href="#11" y="17.368"/><use xlink:href="#12" y="19.539"/><use xlink:href="#16" y="21.71"/><use xlink:href="#17" y="23.881"/><use xlink:href="#19" y="26.052"/><use xlink:href="#20" y="28.223"/><use xlink:href="#16" y="30.394"/></svg><svg x="8800"><use xlink:href="#a"/><use xlink:href="#b" x="32.996" y="30.369"/><use xlink:href="#3"/><use xlink:href="#4" y="2.171"/><use xlink:href="#5" y="4.342"/><use xlink:href="#6" y="6.513"/><use xlink:href="#7" y="8.684"/><use xlink:href="#8" y="10.855"/><use xlink:href="#9" y="13.026"/><use xlink:href="#10" y="15.197"/><use xlink:href="#11" y="17.368"/><use xlink:href="#12" y="19.539"/><use xlink:href="#16" y="21.71"/><use xlink:href="#17" y="23.881"/><use xlink:href="#19" y="26.052"/><use xlink:href="#20" y="28.223"/><use xlink:href="#18" y="30.394"/></svg><svg x="8960"><use xlink:href="#a"/><use xlink:href="#b" x="33.996" y="30.369"/><use xlink:href="#3"/><use xlink:href="#4" y="2.171"/><use xlink:href="#5" y="4.342"/><use xlink:href="#6" y="6.513"/><use xlink:href="#7" y="8.684"/><use xlink:href="#8" y="10.855"/><use xlink:href="#9" y="13.026"/><use xlink:href="#10" y="15.197"/><use xlink:href="#11" y="17.368"/><use xlink:href="#12" y="19.539"/><use xlink:href="#16" y="21.71"/><use xlink:href="#17" y="23.881"/><use xlink:href="#19" y="26.052"/><use xlink:href="#20" y="28.223"/><use xlink:href="#21" y="30.394"/></svg><svg x="9120"><use xlink:href="#a"/><use xlink:href="#b" x="-.004" y="30.369"/><use xlink:href="#3"/><use xlink:href="#4" y="2.171"/><use xlink:href="#5" y="4.342"/><use xlink:href="#6" y="6.513"/><use xlink:href="#7" y="8.684"/><use xlink:href="#8" y="10.855"/><use xlink:href="#9" y="13.026"/><use xlink:href="#10" y="15.197"/><use xlink:href="#11" y="17.368"/><use xlink:href="#12" y="19.539"/><use xlink:href="#16" y="21.71"/><use xlink:href="#17" y="23.881"/><use xlink:href="#19" y="26.052"/><use xlink:href="#20" y="28.223"/><use xlink:href="#21" y="30.394"/></svg><svg x="9280"><use xlink:href="#a"/><use xlink:href="#b" x="-.004" y="32.54"/><use xlink:href="#3"/><use xlink:href="#4" y="2.171"/><use xlink:href="#5" y="4.342"/><use xlink:href="#6" y="6.513"/><use xlink:href="#7" y="8.684"/><use xlink:href="#8" y="10.855"/><use xlink:href="#9" y="13.026"/><use xlink:href="#10" y="15.197"/><use xlink:href="#11" y="17.368"/><use xlink:href="#12" y="19.539"/><use xlink:href="#16" y="21.71"/><use xlink:href="#17" y="23.881"/><use xlink:href="#19" y="26.052"/><use xlink:href="#20" y="28.223"/><use xlink:href="#21" y="30.394"/></svg><svg x="9440"><use xlink:href="#a"/><use xlink:href="#b" x=".996" y="32.54"/><use xlink:href="#3"/><use xlink:href="#4" y="2.171"/><use xlink:href="#5" y="4.342"/><use xlink:href="#6" y="6.513"/><use xlink:href="#7" y="8.684"/><use xlink:href="#8" y="10.855"/><use xlink:href="#9" y="13.026"/><use xlink:href="#10" y="15.197"/><use xlink:href="#11" y="17.368"/><use xlink:href="#12" y="19.539"/><use xlink:href="#16" y="21.71"/><use xlink:href="#17" y="23.881"/><use xlink:href="#19" y="26.052"/><use xlink:href="#20" y="28.223"/><use xlink:href="#21" y="30.394"/><text y="34.235" class="k">d</text></svg><svg x="9600"><use xlink:href="#a"/><use xlink:href="#b" x="9.996" y="32.54"/><use xlink:href="#3"/><use xlink:href="#4" y="2.171"/><use xlink:href="#5" y="4.342"/><use xlink:href="#6" y="6.513"/><use xlink:href="#7" y="8.684"/><use xlink:href="#8" y="10.855"/><use xlink:href="#9" y="13.026"/><use xlink:href="#10" y="15.197"/><use xlink:href="#11" y="17.368"/><use xlink:href="#12" y="19.539"/><use xlink:href="#16" y="21.71"/><use xlink:href="#17" y="23.881"/><use xlink:href="#19" y="26.052"/><use xlink:href="#20" y="28.223"/><use xlink:href="#21" y="30.394"/><text y="34.235" class="k">d---------</text></svg><svg x="9760"><use xlink:href="#a"/><use xlink:href="#b" x="21.996" y="43.395"/><use xlink:href="#3"/><use xlink:href="#4" y="2.171"/><use xlink:href="#5" y="4.342"/><use xlink:href="#6" y="6.513"/><use xlink:href="#7" y="8.684"/><use xlink:href="#8" y="10.855"/><use xlink:href="#9" y="13.026"/><use xlink:href="#10" y="15.197"/><use xlink:href="#11" y="17.368"/><use xlink:href="#12" y="19.539"/><use xlink:href="#16" y="21.71"/><use xlink:href="#17" y="23.881"/><use xlink:href="#19" y="26.052"/><use xlink:href="#20" y="28.223"/><use xlink:href="#21" y="30.394"/><use xlink:href="#22" y="32.565"/><use xlink:href="#23" y="34.736"/><use xlink:href="#24" y="36.907"/><use xlink:href="#25" y="39.078"/><use xlink:href="#26" y="41.249"/><use xlink:href="#27" y="43.42"/></svg><svg x="9920"><use xlink:href="#a"/><use xlink:href="#b" x="-.004" y="45.566"/><use xlink:href="#3"/><use xlink:href="#4" y="2.171"/><use xlink:href="#5" y="4.342"/><use xlink:href="#6" y="6.513"/><use xlink:href="#7" y="8.684"/><use xlink:href="#8" y="10.855"/><use xlink:href="#9" y="13.026"/><use xlink:href="#10" y="15.197"/><use xlink:href="#11" y="17.368"/><use xlink:href="#12" y="19.539"/><use xlink:href="#16" y="21.71"/><use xlink:href="#17" y="23.881"/><use xlink:href="#19" y="26.052"/><use xlink:href="#20" y="28.223"/><use xlink:href="#21" y="30.394"/><use xlink:href="#22" y="32.565"/><use xlink:href="#23" y="34.736"/><use xlink:href="#24" y="36.907"/><use xlink:href="#25" y="39.078"/><use xlink:href="#26" y="41.249"/><use xlink:href="#27" y="43.42"/></svg><svg x="10080"><use xlink:href="#a"/><use xlink:href="#b" x="-.004" y="49.908"/><use xlink:href="#3"/><use xlink:href="#4" y="2.171"/><use xlink:href="#5" y="4.342"/><use xlink:href="#6" y="6.513"/><use xlink:href="#7" y="8.684"/><use xlink:href="#8" y="10.855"/><use xlink:href="#9" y="13.026"/><use xlink:href="#10" y="15.197"/><use xlink:href="#11" y="17.368"/><use xlink:href="#12" y="19.539"/><use xlink:href="#16" y="21.71"/><use xlink:href="#17" y="23.881"/><use xlink:href="#19" y="26.052"/><use xlink:href="#20" y="28.223"/><use xlink:href="#21" y="30.394"/><use xlink:href="#22" y="32.565"/><use xlink:href="#23" y="34.736"/><use xlink:href="#24" y="36.907"/><use xlink:href="#25" y="39.078"/><use xlink:href="#26" y="41.249"/><use xlink:href="#27" y="43.42"/><use xlink:href="#28" y="45.591"/><use xlink:href="#29" y="47.762"/></svg><svg x="10240"><use xlink:href="#a"/><use xlink:href="#b" x="-.004" y="49.908"/><use xlink:href="#3"/><use xlink:href="#4" y="2.171"/><use xlink:href="#5" y="4.342"/><use xlink:href="#6" y="6.513"/><use xlink:href="#7" y="8.684"/><use xlink:href="#8" y="10.855"/><use xlink:href="#9" y="13.026"/><use xlink:href="#10" y="15.197"/><use xlink:href="#11" y="17.368"/><use xlink:href="#12" y="19.539"/><use xlink:href="#16" y="21.71"/><use xlink:href="#17" y="23.881"/><use xlink:href="#19" y="26.052"/><use xlink:href="#20" y="28.223"/><use xlink:href="#21" y="30.394"/><use xlink:href="#22" y="32.565"/><use xlink:href="#23" y="34.736"/><use xlink:href="#24" y="36.907"/><use xlink:href="#25" y="39.078"/><use xlink:href="#26" y="41.249"/><use xlink:href="#27" y="43.42"/><use xlink:href="#28" y="45.591"/><use xlink:href="#29" y="47.762"/></svg><svg x="10400"><use xlink:href="#a"/><use xlink:href="#b" x="26.996" y="49.908"/><use xlink:href="#3"/><use xlink:href="#4" y="2.171"/><use xlink:href="#5" y="4.342"/><use xlink:href="#6" y="6.513"/><use xlink:href="#7" y="8.684"/><use xlink:href="#8" y="10.855"/><use xlink:href="#9" y="13.026"/><use xlink:href="#10" y="15.197"/><use xlink:href="#11" y="17.368"/><use xlink:href="#12" y="19.539"/><use xlink:href="#16" y="21.71"/><use xlink:href="#17" y="23.881"/><use xlink:href="#19" y="26.052"/><use xlink:href="#20" y="28.223"/><use xlink:href="#21" y="30.394"/><use xlink:href="#22" y="32.565"/><use xlink:href="#23" y="34.736"/><use xlink:href="#24" y="36.907"/><use xlink:href="#25" y="39.078"/><use xlink:href="#26" y="41.249"/><use xlink:href="#27" y="43.42"/><use xlink:href="#28" y="45.591"/><use xlink:href="#29" y="47.762"/><use xlink:href="#2" y="49.933"/></svg><svg x="10560"><use xlink:href="#a"/><use xlink:href="#b" x="27.996" y="49.908"/><use xlink:href="#3"/><use xlink:href="#4" y="2.171"/><use xlink:href="#5" y="4.342"/><use xlink:href="#6" y="6.513"/><use xlink:href="#7" y="8.684"/><use xlink:href="#8" y="10.855"/><use xlink:href="#9" y="13.026"/><use xlink:href="#10" y="15.197"/><use xlink:href="#11" y="17.368"/><use xlink:href="#12" y="19.539"/><use xlink:href="#16" y="21.71"/><use xlink:href="#17" y="23.881"/><use xlink:href="#19" y="26.052"/><use xlink:href="#20" y="28.223"/><use xlink:href="#21" y="30.394"/><use xlink:href="#22" y="32.565"/><use xlink:href="#23" y="34.736"/><use xlink:href="#24" y="36.907"/><use xlink:href="#25" y="39.078"/><use xlink:href="#26" y="41.249"/><use xlink:href="#27" y="43.42"/><use xlink:href="#28" y="45.591"/><use xlink:href="#29" y="47.762"/><text y="51.603" class="f">➜</text><text x="3.006" y="51.603" class="g">AssemblyLS</text><text x="14.028" y="51.603" class="h">git:(</text><text x="19.038" y="51.603" class="i">main</text><text x="23.046" y="51.603" class="h">)</text><text x="25.05" y="51.603" class="j">✗</text><text x="27.054" y="51.603" class="k">e</text></svg><svg x="10720"><use xlink:href="#a"/><use xlink:href="#b" x="28.996" y="49.908"/><use xlink:href="#3"/><use xlink:href="#4" y="2.171"/><use xlink:href="#5" y="4.342"/><use xlink:href="#6" y="6.513"/><use xlink:href="#7" y="8.684"/><use xlink:href="#8" y="10.855"/><use xlink:href="#9" y="13.026"/><use xlink:href="#10" y="15.197"/><use xlink:href="#11" y="17.368"/><use xlink:href="#12" y="19.539"/><use xlink:href="#16" y="21.71"/><use xlink:href="#17" y="23.881"/><use xlink:href="#19" y="26.052"/><use xlink:href="#20" y="28.223"/><use xlink:href="#21" y="30.394"/><use xlink:href="#22" y="32.565"/><use xlink:href="#23" y="34.736"/><use xlink:href="#24" y="36.907"/><use xlink:href="#25" y="39.078"/><use xlink:href="#26" y="41.249"/><use xlink:href="#27" y="43.42"/><use xlink:href="#28" y="45.591"/><use xlink:href="#29" y="47.762"/><text y="51.603" class="f">➜</text><text x="3.006" y="51.603" class="g">AssemblyLS</text><text x="14.028" y="51.603" class="h">git:(</text><text x="19.038" y="51.603" class="i">main</text><text x="23.046" y="51.603" class="h">)</text><text x="25.05" y="51.603" class="j">✗</text><text x="27.054" y="51.603" class="k">ex</text></svg><svg x="10880"><use xlink:href="#a"/><use xlink:href="#b" x="29.996" y="49.908"/><use xlink:href="#3"/><use xlink:href="#4" y="2.171"/><use xlink:href="#5" y="4.342"/><use xlink:href="#6" y="6.513"/><use xlink:href="#7" y="8.684"/><use xlink:href="#8" y="10.855"/><use xlink:href="#9" y="13.026"/><use xlink:href="#10" y="15.197"/><use xlink:href="#11" y="17.368"/><use xlink:href="#12" y="19.539"/><use xlink:href="#16" y="21.71"/><use xlink:href="#17" y="23.881"/><use xlink:href="#19" y="26.052"/><use xlink:href="#20" y="28.223"/><use xlink:href="#21" y="30.394"/><use xlink:href="#22" y="32.565"/><use xlink:href="#23" y="34.736"/><use xlink:href="#24" y="36.907"/><use xlink:href="#25" y="39.078"/><use xlink:href="#26" y="41.249"/><use xlink:href="#27" y="43.42"/><use xlink:href="#28" y="45.591"/><use xlink:href="#29" y="47.762"/><text y="51.603" class="f">➜</text><text x="3.006" y="51.603" class="g">AssemblyLS</text><text x="14.028" y="51.603" class="h">git:(</text><text x="19.038" y="51.603" class="i">main</text><text x="23.046" y="51.603" class="h">)</text><text x="25.05" y="51.603" class="j">✗</text><text x="27.054" y="51.603" class="k">exi</text></svg><svg x="11040"><use xlink:href="#a"/><use xlink:href="#b" x="30.996" y="49.908"/><use xlink:href="#3"/><use xlink:href="#4" y="2.171"/><use xlink:href="#5" y="4.342"/><use xlink:href="#6" y="6.513"/><use xlink:href="#7" y="8.684"/><use xlink:href="#8" y="10.855"/><use xlink:href="#9" y="13.026"/><use xlink:href="#10" y="15.197"/><use xlink:href="#11" y="17.368"/><use xlink:href="#12" y="19.539"/><use xlink:href="#16" y="21.71"/><use xlink:href="#17" y="23.881"/><use xlink:href="#19" y="26.052"/><use xlink:href="#20" y="28.223"/><use xlink:href="#21" y="30.394"/><use xlink:href="#22" y="32.565"/><use xlink:href="#23" y="34.736"/><use xlink:href="#24" y="36.907"/><use xlink:href="#25" y="39.078"/><use xlink:href="#26" y="41.249"/><use xlink:href="#27" y="43.42"/><use xlink:href="#28" y="45.591"/><use xlink:href="#29" y="47.762"/><use xlink:href="#30" y="49.933"/></svg><svg x="11200"><use xlink:href="#a"/><use xlink:href="#b" x="30.996" y="49.908"/><use xlink:href="#3"/><use xlink:href="#4" y="2.171"/><use xlink:href="#5" y="4.342"/><use xlink:href="#6" y="6.513"/><use xlink:href="#7" y="8.684"/><use xlink:href="#8" y="10.855"/><use xlink:href="#9" y="13.026"/><use xlink:href="#10" y="15.197"/><use xlink:href="#11" y="17.368"/><use xlink:href="#12" y="19.539"/><use xlink:href="#16" y="21.71"/><use xlink:href="#17" y="23.881"/><use xlink:href="#19" y="26.052"/><use xlink:href="#20" y="28.223"/><use xlink:href="#21" y="30.394"/><use xlink:href="#22" y="32.565"/><use xlink:href="#23" y="34.736"/><use xlink:href="#24" y="36.907"/><use xlink:href="#25" y="39.078"/><use xlink:href="#26" y="41.249"/><use xlink:href="#27" y="43.42"/><use xlink:href="#28" y="45.591"/><use xlink:href="#29" y="47.762"/><use xlink:href="#30" y="49.933"/></svg><svg x="11360"><use xlink:href="#a"/><use xlink:href="#b" x="-.004" y="52.079"/><use xlink:href="#3"/><use xlink:href="#4" y="2.171"/><use xlink:href="#5" y="4.342"/><use xlink:href="#6" y="6.513"/><use xlink:href="#7" y="8.684"/><use xlink:href="#8" y="10.855"/><use xlink:href="#9" y="13.026"/><use xlink:href="#10" y="15.197"/><use xlink:href="#11" y="17.368"/><use xlink:href="#12" y="19.539"/><use xlink:href="#16" y="21.71"/><use xlink:href="#17" y="23.881"/><use xlink:href="#19" y="26.052"/><use xlink:href="#20" y="28.223"/><use xlink:href="#21" y="30.394"/><use xlink:href="#22" y="32.565"/><use xlink:href="#23" y="34.736"/><use xlink:href="#24" y="36.907"/><use xlink:href="#25" y="39.078"/><use xlink:href="#26" y="41.249"/><use xlink:href="#27" y="43.42"/><use xlink:href="#28" y="45.591"/><use xlink:href="#29" y="47.762"/><use xlink:href="#30" y="49.933"/></svg></svg></g></g></svg></svg>