<svg xmlns="http://www.w3.org/2000/svg" xmlns:xlink="http://www.w3.org/1999/xlink" width="1640" height="1145.5"><rect width="1640" height="1145.5" rx="5" ry="5" class="a"/><svg y="0%" x="0%"><circle cx="20" cy="20" r="6" fill="#ff5f58"/><circle cx="40" cy="20" r="6" fill="#ffbd2e"/><circle cx="60" cy="20" r="6" fill="#18c132"/></svg><svg height="1085.5" viewBox="0 0 160 108.55" width="1600" x="15" xmlns="http://www.w3.org/2000/svg" xmlns:xlink="http://www.w3.org/1999/xlink" y="50"><style>@keyframes o{0%{transform:translateX(0)}9.7%{transform:translateX(-160px)}10.1%{transform:translateX(-320px)}11.4%{transform:translateX(-480px)}23%{transform:translateX(-640px)}23.2%{transform:translateX(-800px)}24.2%{transform:translateX(-960px)}25.4%{transform:translateX(-1120px)}27.9%{transform:translateX(-1280px)}28%{transform:translateX(-1440px)}28.5%{transform:translateX(-1600px)}29.2%{transform:translateX(-1920px)}29.6%{transform:translateX(-2080px)}29.9%{transform:translateX(-2240px)}30.3%{transform:translateX(-2560px)}30.6%{transform:translateX(-2720px)}30.9%{transform:translateX(-2880px)}31%{transform:translateX(-3040px)}31.2%{transform:translateX(-3360px)}32%{transform:translateX(-3520px)}32.3%{transform:translateX(-3840px)}39.7%{transform:translateX(-4000px)}41.1%{transform:translateX(-4160px)}42.9%{transform:translateX(-4320px)}43.6%{transform:translateX(-4480px)}45.3%{transform:translateX(-4640px)}45.6%{transform:translateX(-5120px)}45.7%{transform:translateX(-5440px)}46%{transform:translateX(-5600px)}97%{transform:translateX(-5760px)}97.2%{transform:translateX(-5920px)}97.7%{transform:translateX(-6080px)}99%{transform:translateX(-6240px)}to{transform:translateX(-6400px)}}.a{fill:#282d35}.f,.g{white-space:pre}.f{fill:#a8cc8c;font-weight:700}.g{fill:#66c2cd}.g,.h,.i{font-weight:700}.h{fill:#71bef2;white-space:pre}.i{fill:#e88388}.i,.j,.k,.l{white-space:pre}.j{fill:#dbab79;font-weight:700}.k,.l{fill:#b9c0cb}.l{fill:#73bef3}</style><g font-family="Monaco,Consolas,Menlo,'Bitstream Vera Sans Mono','Powerline Symbols',monospace" font-size="1.67"><defs><symbol id="1"><text y="1.67" class="f">➜</text><text x="3.006" y="1.67" class="g">AssemblyLS</text><text x="14.028" y="1.67" class="h">git:(</text><text x="19.038" y="1.67" class="i">main</text><text x="23.046" y="1.67" class="h">)</text><text x="25.05" y="1.67" class="j">✗</text></symbol><symbol id="2"><text y="1.67" class="f">➜</text><text x="3.006" y="1.67" class="g">AssemblyLS</text><text x="14.028" y="1.67" class="h">git:(</text><text x="19.038" y="1.67" class="i">main</text><text x="23.046" y="1.67" class="h">)</text><text x="25.05" y="1.67" class="j">✗</text><text x="27.054" y="1.67" class="k">make</text></symbol><symbol id="3"><text y="1.67" class="k">nasm</text><text x="5.01" y="1.67" class="k">-f</text><text x="8.016" y="1.67" class="k">elf64</text><text x="14.028" y="1.67" class="k">-g</text><text x="17.034" y="1.67" class="k">-F</text><text x="20.04" y="1.67" class="k">dwarf</text><text x="26.052" y="1.67" class="k">-o</text><text x="29.058" y="1.67" class="k">obj/main.o</text><text x="40.08" y="1.67" class="k">src/main.s</text></symbol><symbol id="4"><text y="1.67" class="k">nasm</text><text x="5.01" y="1.67" class="k">-f</text><text x="8.016" y="1.67" class="k">elf64</text><text x="14.028" y="1.67" class="k">-g</text><text x="17.034" y="1.67" class="k">-F</text><text x="20.04" y="1.67" class="k">dwarf</text><text x="26.052" y="1.67" class="k">-o</text><text x="29.058" y="1.67" class="k">obj/utils/color_utils.o</text><text x="53.106" y="1.67" class="k">src/utils/color_utils.s</text></symbol><symbol id="5"><text y="1.67" class="k">nasm</text><text x="5.01" y="1.67" class="k">-f</text><text x="8.016" y="1.67" class="k">elf64</text><text x="14.028" y="1.67" class="k">-g</text><text x="17.034" y="1.67" class="k">-F</text><text x="20.04" y="1.67" class="k">dwarf</text><text x="26.052" y="1.67" class="k">-o</text><text x="29.058" y="1.67" class="k">obj/utils/dir_utils.o</text><text x="51.102" y="1.67" class="k">src/utils/dir_utils.s</text></symbol><symbol id="6"><text y="1.67" class="k">nasm</text><text x="5.01" y="1.67" class="k">-f</text><text x="8.016" y="1.67" class="k">elf64</text><text x="14.028" y="1.67" class="k">-g</text><text x="17.034" y="1.67" class="k">-F</text><text x="20.04" y="1.67" class="k">dwarf</text><text x="26.052" y="1.67" class="k">-o</text><text x="29.058" y="1.67" class="k">obj/utils/get_lines.o</text><text x="51.102" y="1.67" class="k">src/utils/get_lines.s</text></symbol><symbol id="7"><text y="1.67" class="k">nasm</text><text x="5.01" y="1.67" class="k">-f</text><text x="8.016" y="1.67" class="k">elf64</text><text x="14.028" y="1.67" class="k">-g</text><text x="17.034" y="1.67" class="k">-F</text><text x="20.04" y="1.67" class="k">dwarf</text><text x="26.052" y="1.67" class="k">-o</text><text x="29.058" y="1.67" class="k">obj/utils/passwd_utils.o</text><text x="54.108" y="1.67" class="k">src/utils/passwd_utils.s</text></symbol><symbol id="8"><text y="1.67" class="k">nasm</text><text x="5.01" y="1.67" class="k">-f</text><text x="8.016" y="1.67" class="k">elf64</text><text x="14.028" y="1.67" class="k">-g</text><text x="17.034" y="1.67" class="k">-F</text><text x="20.04" y="1.67" class="k">dwarf</text><text x="26.052" y="1.67" class="k">-o</text><text x="29.058" y="1.67" class="k">obj/utils/print_utils.o</text><text x="53.106" y="1.67" class="k">src/utils/print_utils.s</text></symbol><symbol id="9"><text y="1.67" class="k">nasm</text><text x="5.01" y="1.67" class="k">-f</text><text x="8.016" y="1.67" class="k">elf64</text><text x="14.028" y="1.67" class="k">-g</text><text x="17.034" y="1.67" class="k">-F</text><text x="20.04" y="1.67" class="k">dwarf</text><text x="26.052" y="1.67" class="k">-o</text><text x="29.058" y="1.67" class="k">obj/utils/string_utils.o</text><text x="54.108" y="1.67" class="k">src/utils/string_utils.s</text></symbol><symbol id="10"><text y="1.67" class="k">ld</text><text x="3.006" y="1.67" class="k">-o</text><text x="6.012" y="1.67" class="k">ls</text><text x="9.018" y="1.67" class="k">obj/main.o</text><text x="20.04" y="1.67" class="k">obj/utils/color_utils.o</text><text x="44.088" y="1.67" class="k">obj/utils/dir_utils.o</text><text x="66.132" y="1.67" class="k">obj/utils/get_lines.o</text><text x="88.176" y="1.67" class="k">obj/utils/passwd_utils.o</text><text x="113.226" y="1.67" class="k">obj/utils/print_utils.o</text><text x="137.274" y="1.67" class="k">obj/utils/string_utils.</text></symbol><symbol id="11"><text y="1.67" class="k">o</text></symbol><symbol id="12"><text y="1.67" class="f">➜</text><text x="3.006" y="1.67" class="g">AssemblyLS</text><text x="14.028" y="1.67" class="h">git:(</text><text x="19.038" y="1.67" class="i">main</text><text x="23.046" y="1.67" class="h">)</text><text x="25.05" y="1.67" class="j">✗</text><text x="27.054" y="1.67" class="k">./ls</text></symbol><symbol id="13"><text y="1.67" class="k">root:x:0:0:root:/root:/bin/bash</text><text x="31.062" y="1.67" class="l">include</text><text x="40.08" y="1.67" class="l">src</text><text x="45.09" y="1.67" class="l">tmp</text><text x="50.1" y="1.67" class="k">README.md</text><text x="61.122" y="1.67" class="k">ls</text><text x="65.13" y="1.67" class="k">demo.cast</text><text x="76.152" y="1.67" class="k">Makefile</text><text x="86.172" y="1.67" class="l">obj</text></symbol><symbol id="14"><text y="1.67" class="f">➜</text><text x="3.006" y="1.67" class="g">AssemblyLS</text><text x="14.028" y="1.67" class="h">git:(</text><text x="19.038" y="1.67" class="i">main</text><text x="23.046" y="1.67" class="h">)</text><text x="25.05" y="1.67" class="j">✗</text><text x="27.054" y="1.67" class="k">exit</text></symbol><symbol id="a"><path fill="transparent" d="M0 0h160v50H0z"/></symbol><symbol id="b"><path fill="#6f7683" d="M0 0h1.102v2.171H0z"/></symbol></defs><path class="a" d="M0 0h160v108.55H0z"/><g style="animation-duration:11.489515s;animation-iteration-count:infinite;animation-name:o;animation-timing-function:steps(1,end)"><svg width="6560"><svg><use xlink:href="#a"/><use xlink:href="#b" x="-.004"/></svg><svg x="160"><use xlink:href="#a"/><use xlink:href="#b" x="-.004"/></svg><svg x="320"><use xlink:href="#a"/><use xlink:href="#b" x="13.996"/><text y="1.67" class="f">➜</text><text x="3.006" y="1.67" class="g">AssemblyLS</text></svg><svg x="480"><use xlink:href="#a"/><use xlink:href="#b" x="26.996"/><use xlink:href="#1"/></svg><svg x="640"><use xlink:href="#a"/><use xlink:href="#b" x="27.996"/><text y="1.67" class="f">➜</text><text x="3.006" y="1.67" class="g">AssemblyLS</text><text x="14.028" y="1.67" class="h">git:(</text><text x="19.038" y="1.67" class="i">main</text><text x="23.046" y="1.67" class="h">)</text><text x="25.05" y="1.67" class="j">✗</text><text x="27.054" y="1.67" class="k">m</text></svg><svg x="800"><use xlink:href="#a"/><use xlink:href="#b" x="28.996"/><text y="1.67" class="f">➜</text><text x="3.006" y="1.67" class="g">AssemblyLS</text><text x="14.028" y="1.67" class="h">git:(</text><text x="19.038" y="1.67" class="i">main</text><text x="23.046" y="1.67" class="h">)</text><text x="25.05" y="1.67" class="j">✗</text><text x="27.054" y="1.67" class="k">ma</text></svg><svg x="960"><use xlink:href="#a"/><use xlink:href="#b" x="29.996"/><text y="1.67" class="f">➜</text><text x="3.006" y="1.67" class="g">AssemblyLS</text><text x="14.028" y="1.67" class="h">git:(</text><text x="19.038" y="1.67" class="i">main</text><text x="23.046" y="1.67" class="h">)</text><text x="25.05" y="1.67" class="j">✗</text><text x="27.054" y="1.67" class="k">mak</text></svg><svg x="1120"><use xlink:href="#a"/><use xlink:href="#b" x="30.996"/><use xlink:href="#2"/></svg><svg x="1280"><use xlink:href="#a"/><use xlink:href="#b" x="-.004"/><use xlink:href="#2"/></svg><svg x="1440"><use xlink:href="#a"/><use xlink:href="#b" x="-.004" y="2.146"/><use xlink:href="#2"/></svg><svg x="1600"><use xlink:href="#a"/><use xlink:href="#b" x="-.004" y="4.317"/><use xlink:href="#2"/><use xlink:href="#3" y="2.171"/></svg><svg x="1760"><use xlink:href="#a"/><use xlink:href="#b" x="75.996" y="4.317"/><use xlink:href="#2"/><use xlink:href="#3" y="2.171"/><use xlink:href="#4" y="4.342"/></svg><svg x="1920"><use xlink:href="#a"/><use xlink:href="#b" x="-.004" y="6.488"/><use xlink:href="#2"/><use xlink:href="#3" y="2.171"/><use xlink:href="#4" y="4.342"/></svg><svg x="2080"><use xlink:href="#a"/><use xlink:href="#b" x="-.004" y="8.659"/><use xlink:href="#2"/><use xlink:href="#3" y="2.171"/><use xlink:href="#4" y="4.342"/><use xlink:href="#5" y="6.513"/></svg><svg x="2240"><use xlink:href="#a"/><use xlink:href="#b" x="-.004" y="10.83"/><use xlink:href="#2"/><use xlink:href="#3" y="2.171"/><use xlink:href="#4" y="4.342"/><use xlink:href="#5" y="6.513"/><use xlink:href="#6" y="8.684"/></svg><svg x="2400"><use xlink:href="#a"/><use xlink:href="#b" x="77.996" y="10.83"/><use xlink:href="#2"/><use xlink:href="#3" y="2.171"/><use xlink:href="#4" y="4.342"/><use xlink:href="#5" y="6.513"/><use xlink:href="#6" y="8.684"/><use xlink:href="#7" y="10.855"/></svg><svg x="2560"><use xlink:href="#a"/><use xlink:href="#b" x="-.004" y="13.001"/><use xlink:href="#2"/><use xlink:href="#3" y="2.171"/><use xlink:href="#4" y="4.342"/><use xlink:href="#5" y="6.513"/><use xlink:href="#6" y="8.684"/><use xlink:href="#7" y="10.855"/></svg><svg x="2720"><use xlink:href="#a"/><use xlink:href="#b" x="-.004" y="15.172"/><use xlink:href="#2"/><use xlink:href="#3" y="2.171"/><use xlink:href="#4" y="4.342"/><use xlink:href="#5" y="6.513"/><use xlink:href="#6" y="8.684"/><use xlink:href="#7" y="10.855"/><use xlink:href="#8" y="13.026"/></svg><svg x="2880"><use xlink:href="#a"/><use xlink:href="#b" x="77.996" y="15.172"/><use xlink:href="#2"/><use xlink:href="#3" y="2.171"/><use xlink:href="#4" y="4.342"/><use xlink:href="#5" y="6.513"/><use xlink:href="#6" y="8.684"/><use xlink:href="#7" y="10.855"/><use xlink:href="#8" y="13.026"/><use xlink:href="#9" y="15.197"/></svg><svg x="3040"><use xlink:href="#a"/><use xlink:href="#b" x="-.004" y="17.343"/><use xlink:href="#2"/><use xlink:href="#3" y="2.171"/><use xlink:href="#4" y="4.342"/><use xlink:href="#5" y="6.513"/><use xlink:href="#6" y="8.684"/><use xlink:href="#7" y="10.855"/><use xlink:href="#8" y="13.026"/><use xlink:href="#9" y="15.197"/></svg><svg x="3200"><use xlink:href="#a"/><use xlink:href="#b" x=".996" y="19.514"/><use xlink:href="#2"/><use xlink:href="#3" y="2.171"/><use xlink:href="#4" y="4.342"/><use xlink:href="#5" y="6.513"/><use xlink:href="#6" y="8.684"/><use xlink:href="#7" y="10.855"/><use xlink:href="#8" y="13.026"/><use xlink:href="#9" y="15.197"/><use xlink:href="#10" y="17.368"/><use xlink:href="#11" y="19.539"/></svg><svg x="3360"><use xlink:href="#a"/><use xlink:href="#b" x="-.004" y="21.685"/><use xlink:href="#2"/><use xlink:href="#3" y="2.171"/><use xlink:href="#4" y="4.342"/><use xlink:href="#5" y="6.513"/><use xlink:href="#6" y="8.684"/><use xlink:href="#7" y="10.855"/><use xlink:href="#8" y="13.026"/><use xlink:href="#9" y="15.197"/><use xlink:href="#10" y="17.368"/><use xlink:href="#11" y="19.539"/></svg><svg x="3520"><use xlink:href="#a"/><use xlink:href="#b" x="-.004" y="21.685"/><use xlink:href="#2"/><use xlink:href="#3" y="2.171"/><use xlink:href="#4" y="4.342"/><use xlink:href="#5" y="6.513"/><use xlink:href="#6" y="8.684"/><use xlink:href="#7" y="10.855"/><use xlink:href="#8" y="13.026"/><use xlink:href="#9" y="15.197"/><use xlink:href="#10" y="17.368"/><use xlink:href="#11" y="19.539"/></svg><svg x="3680"><use xlink:href="#a"/><use xlink:href="#b" x="26.996" y="21.685"/><use xlink:href="#2"/><use xlink:href="#3" y="2.171"/><use xlink:href="#4" y="4.342"/><use xlink:href="#5" y="6.513"/><use xlink:href="#6" y="8.684"/><use xlink:href="#7" y="10.855"/><use xlink:href="#8" y="13.026"/><use xlink:href="#9" y="15.197"/><use xlink:href="#10" y="17.368"/><use xlink:href="#11" y="19.539"/><use xlink:href="#1" y="21.71"/></svg><svg x="3840"><use xlink:href="#a"/><use xlink:href="#b" x="26.996" y="21.685"/><use xlink:href="#2"/><use xlink:href="#3" y="2.171"/><use xlink:href="#4" y="4.342"/><use xlink:href="#5" y="6.513"/><use xlink:href="#6" y="8.684"/><use xlink:href="#7" y="10.855"/><use xlink:href="#8" y="13.026"/><use xlink:href="#9" y="15.197"/><use xlink:href="#10" y="17.368"/><use xlink:href="#11" y="19.539"/><use xlink:href="#1" y="21.71"/></svg><svg x="4000"><use xlink:href="#a"/><use xlink:href="#b" x="27.996" y="21.685"/><use xlink:href="#2"/><use xlink:href="#3" y="2.171"/><use xlink:href="#4" y="4.342"/><use xlink:href="#5" y="6.513"/><use xlink:href="#6" y="8.684"/><use xlink:href="#7" y="10.855"/><use xlink:href="#8" y="13.026"/><use xlink:href="#9" y="15.197"/><use xlink:href="#10" y="17.368"/><use xlink:href="#11" y="19.539"/><text y="23.38" class="f">➜</text><text x="3.006" y="23.38" class="g">AssemblyLS</text><text x="14.028" y="23.38" class="h">git:(</text><text x="19.038" y="23.38" class="i">main</text><text x="23.046" y="23.38" class="h">)</text><text x="25.05" y="23.38" class="j">✗</text><text x="27.054" y="23.38" class="k">.</text></svg><svg x="4160"><use xlink:href="#a"/><use xlink:href="#b" x="28.996" y="21.685"/><use xlink:href="#2"/><use xlink:href="#3" y="2.171"/><use xlink:href="#4" y="4.342"/><use xlink:href="#5" y="6.513"/><use xlink:href="#6" y="8.684"/><use xlink:href="#7" y="10.855"/><use xlink:href="#8" y="13.026"/><use xlink:href="#9" y="15.197"/><use xlink:href="#10" y="17.368"/><use xlink:href="#11" y="19.539"/><text y="23.38" class="f">➜</text><text x="3.006" y="23.38" class="g">AssemblyLS</text><text x="14.028" y="23.38" class="h">git:(</text><text x="19.038" y="23.38" class="i">main</text><text x="23.046" y="23.38" class="h">)</text><text x="25.05" y="23.38" class="j">✗</text><text x="27.054" y="23.38" class="k">./</text></svg><svg x="4320"><use xlink:href="#a"/><use xlink:href="#b" x="29.996" y="21.685"/><use xlink:href="#2"/><use xlink:href="#3" y="2.171"/><use xlink:href="#4" y="4.342"/><use xlink:href="#5" y="6.513"/><use xlink:href="#6" y="8.684"/><use xlink:href="#7" y="10.855"/><use xlink:href="#8" y="13.026"/><use xlink:href="#9" y="15.197"/><use xlink:href="#10" y="17.368"/><use xlink:href="#11" y="19.539"/><text y="23.38" class="f">➜</text><text x="3.006" y="23.38" class="g">AssemblyLS</text><text x="14.028" y="23.38" class="h">git:(</text><text x="19.038" y="23.38" class="i">main</text><text x="23.046" y="23.38" class="h">)</text><text x="25.05" y="23.38" class="j">✗</text><text x="27.054" y="23.38" class="k">./l</text></svg><svg x="4480"><use xlink:href="#a"/><use xlink:href="#b" x="30.996" y="21.685"/><use xlink:href="#2"/><use xlink:href="#3" y="2.171"/><use xlink:href="#4" y="4.342"/><use xlink:href="#5" y="6.513"/><use xlink:href="#6" y="8.684"/><use xlink:href="#7" y="10.855"/><use xlink:href="#8" y="13.026"/><use xlink:href="#9" y="15.197"/><use xlink:href="#10" y="17.368"/><use xlink:href="#11" y="19.539"/><use xlink:href="#12" y="21.71"/></svg><svg x="4640"><use xlink:href="#a"/><use xlink:href="#b" x="-.004" y="23.856"/><use xlink:href="#2"/><use xlink:href="#3" y="2.171"/><use xlink:href="#4" y="4.342"/><use xlink:href="#5" y="6.513"/><use xlink:href="#6" y="8.684"/><use xlink:href="#7" y="10.855"/><use xlink:href="#8" y="13.026"/><use xlink:href="#9" y="15.197"/><use xlink:href="#10" y="17.368"/><use xlink:href="#11" y="19.539"/><use xlink:href="#12" y="21.71"/></svg><svg x="4800"><use xlink:href="#a"/><use xlink:href="#b" x="30.996" y="23.856"/><use xlink:href="#2"/><use xlink:href="#3" y="2.171"/><use xlink:href="#4" y="4.342"/><use xlink:href="#5" y="6.513"/><use xlink:href="#6" y="8.684"/><use xlink:href="#7" y="10.855"/><use xlink:href="#8" y="13.026"/><use xlink:href="#9" y="15.197"/><use xlink:href="#10" y="17.368"/><use xlink:href="#11" y="19.539"/><use xlink:href="#12" y="21.71"/><text y="25.551" class="k">root:x:0:0:root:/root:/bin/bash</text></svg><svg x="4960"><use xlink:href="#a"/><use xlink:href="#b" x="44.996" y="23.856"/><use xlink:href="#2"/><use xlink:href="#3" y="2.171"/><use xlink:href="#4" y="4.342"/><use xlink:href="#5" y="6.513"/><use xlink:href="#6" y="8.684"/><use xlink:href="#7" y="10.855"/><use xlink:href="#8" y="13.026"/><use xlink:href="#9" y="15.197"/><use xlink:href="#10" y="17.368"/><use xlink:href="#11" y="19.539"/><use xlink:href="#12" y="21.71"/><text y="25.551" class="k">root:x:0:0:root:/root:/bin/bash</text><text x="31.062" y="25.551" class="l">include</text><text x="40.08" y="25.551" class="l">src</text></svg><svg x="5120"><use xlink:href="#a"/><use xlink:href="#b" x="85.996" y="23.856"/><use xlink:href="#2"/><use xlink:href="#3" y="2.171"/><use xlink:href="#4" y="4.342"/><use xlink:href="#5" y="6.513"/><use xlink:href="#6" y="8.684"/><use xlink:href="#7" y="10.855"/><use xlink:href="#8" y="13.026"/><use xlink:href="#9" y="15.197"/><use xlink:href="#10" y="17.368"/><use xlink:href="#11" y="19.539"/><use xlink:href="#12" y="21.71"/><text y="25.551" class="k">root:x:0:0:root:/root:/bin/bash</text><text x="31.062" y="25.551" class="l">include</text><text x="40.08" y="25.551" class="l">src</text><text x="45.09" y="25.551" class="l">tmp</text><text x="50.1" y="25.551" class="k">README.md</text><text x="61.122" y="25.551" class="k">ls</text><text x="65.13" y="25.551" class="k">demo.cast</text><text x="76.152" y="25.551" class="k">Makefile</text></svg><svg x="5280"><use xlink:href="#a"/><use xlink:href="#b" x="-.004" y="26.027"/><use xlink:href="#2"/><use xlink:href="#3" y="2.171"/><use xlink:href="#4" y="4.342"/><use xlink:href="#5" y="6.513"/><use xlink:href="#6" y="8.684"/><use xlink:href="#7" y="10.855"/><use xlink:href="#8" y="13.026"/><use xlink:href="#9" y="15.197"/><use xlink:href="#10" y="17.368"/><use xlink:href="#11" y="19.539"/><use xlink:href="#12" y="21.71"/><use xlink:href="#13" y="23.881"/></svg><svg x="5440"><use xlink:href="#a"/><use xlink:href="#b" x="-.004" y="26.027"/><use xlink:href="#2"/><use xlink:href="#3" y="2.171"/><use xlink:href="#4" y="4.342"/><use xlink:href="#5" y="6.513"/><use xlink:href="#6" y="8.684"/><use xlink:href="#7" y="10.855"/><use xlink:href="#8" y="13.026"/><use xlink:href="#9" y="15.197"/><use xlink:href="#10" y="17.368"/><use xlink:href="#11" y="19.539"/><use xlink:href="#12" y="21.71"/><use xlink:href="#13" y="23.881"/></svg><svg x="5600"><use xlink:href="#a"/><use xlink:href="#b" x="26.996" y="26.027"/><use xlink:href="#2"/><use xlink:href="#3" y="2.171"/><use xlink:href="#4" y="4.342"/><use xlink:href="#5" y="6.513"/><use xlink:href="#6" y="8.684"/><use xlink:href="#7" y="10.855"/><use xlink:href="#8" y="13.026"/><use xlink:href="#9" y="15.197"/><use xlink:href="#10" y="17.368"/><use xlink:href="#11" y="19.539"/><use xlink:href="#12" y="21.71"/><use xlink:href="#13" y="23.881"/><use xlink:href="#1" y="26.052"/></svg><svg x="5760"><use xlink:href="#a"/><use xlink:href="#b" x="27.996" y="26.027"/><use xlink:href="#2"/><use xlink:href="#3" y="2.171"/><use xlink:href="#4" y="4.342"/><use xlink:href="#5" y="6.513"/><use xlink:href="#6" y="8.684"/><use xlink:href="#7" y="10.855"/><use xlink:href="#8" y="13.026"/><use xlink:href="#9" y="15.197"/><use xlink:href="#10" y="17.368"/><use xlink:href="#11" y="19.539"/><use xlink:href="#12" y="21.71"/><use xlink:href="#13" y="23.881"/><text y="27.722" class="f">➜</text><text x="3.006" y="27.722" class="g">AssemblyLS</text><text x="14.028" y="27.722" class="h">git:(</text><text x="19.038" y="27.722" class="i">main</text><text x="23.046" y="27.722" class="h">)</text><text x="25.05" y="27.722" class="j">✗</text><text x="27.054" y="27.722" class="k">e</text></svg><svg x="5920"><use xlink:href="#a"/><use xlink:href="#b" x="28.996" y="26.027"/><use xlink:href="#2"/><use xlink:href="#3" y="2.171"/><use xlink:href="#4" y="4.342"/><use xlink:href="#5" y="6.513"/><use xlink:href="#6" y="8.684"/><use xlink:href="#7" y="10.855"/><use xlink:href="#8" y="13.026"/><use xlink:href="#9" y="15.197"/><use xlink:href="#10" y="17.368"/><use xlink:href="#11" y="19.539"/><use xlink:href="#12" y="21.71"/><use xlink:href="#13" y="23.881"/><text y="27.722" class="f">➜</text><text x="3.006" y="27.722" class="g">AssemblyLS</text><text x="14.028" y="27.722" class="h">git:(</text><text x="19.038" y="27.722" class="i">main</text><text x="23.046" y="27.722" class="h">)</text><text x="25.05" y="27.722" class="j">✗</text><text x="27.054" y="27.722" class="k">ex</text></svg><svg x="6080"><use xlink:href="#a"/><use xlink:href="#b" x="29.996" y="26.027"/><use xlink:href="#2"/><use xlink:href="#3" y="2.171"/><use xlink:href="#4" y="4.342"/><use xlink:href="#5" y="6.513"/><use xlink:href="#6" y="8.684"/><use xlink:href="#7" y="10.855"/><use xlink:href="#8" y="13.026"/><use xlink:href="#9" y="15.197"/><use xlink:href="#10" y="17.368"/><use xlink:href="#11" y="19.539"/><use xlink:href="#12" y="21.71"/><use xlink:href="#13" y="23.881"/><text y="27.722" class="f">➜</text><text x="3.006" y="27.722" class="g">AssemblyLS</text><text x="14.028" y="27.722" class="h">git:(</text><text x="19.038" y="27.722" class="i">main</text><text x="23.046" y="27.722" class="h">)</text><text x="25.05" y="27.722" class="j">✗</text><text x="27.054" y="27.722" class="k">exi</text></svg><svg x="6240"><use xlink:href="#a"/><use xlink:href="#b" x="30.996" y="26.027"/><use xlink:href="#2"/><use xlink:href="#3" y="2.171"/><use xlink:href="#4" y="4.342"/><use xlink:href="#5" y="6.513"/><use xlink:href="#6" y="8.684"/><use xlink:href="#7" y="10.855"/><use xlink:href="#8" y="13.026"/><use xlink:href="#9" y="15.197"/><use xlink:href="#10" y="17.368"/><use xlink:href="#11" y="19.539"/><use xlink:href="#12" y="21.71"/><use xlink:href="#13" y="23.881"/><use xlink:href="#14" y="26.052"/></svg><svg x="6400"><use xlink:href="#a"/><use xlink:href="#b" x="-.004" y="28.198"/><use xlink:href="#2"/><use xlink:href="#3" y="2.171"/><use xlink:href="#4" y="4.342"/><use xlink:href="#5" y="6.513"/><use xlink:href="#6" y="8.684"/><use xlink:href="#7" y="10.855"/><use xlink:href="#8" y="13.026"/><use xlink:href="#9" y="15.197"/><use xlink:href="#10" y="17.368"/><use xlink:href="#11" y="19.539"/><use xlink:href="#12" y="21.71"/><use xlink:href="#13" y="23.881"/><use xlink:href="#14" y="26.052"/></svg></svg></g></g></svg></svg>